# xmcd
#
# Track frame offsets:
#	150
#	13360
#	25409
#	43492
#	56667
#	72471
#	85421
#	100375
#	114127
#	123306
#	136892
#	149892
#
# Disc length: 2107 seconds
#
# Revision: 1
# Processed by: cddbd v1.5.1PL2 Copyright (c) Steve Scherf et al.
# Submitted via: audiograbber 1.83.01
#
DISCID=ba08390c
DTITLE=Classic Country Artists - Greetings From Nashville
DYEAR=1900
DGENRE=
TTITLE0=The Charlie Daniels Band - Let It Roll
TTITLE1=Mindy McCready - A Girl's Gotta Do (What A Girl's Gotta Do)
TTITLE2=Vince Gill - I Never Knew Lonely
TTITLE3=Dolly Parton - Here You Come Again
TTITLE4=Restless Heart - That Rock Won't Roll
TTITLE5=Pam Tillis - Mi Vida Loca (My Crazy Life)
TTITLE6=Lorrie Morgan - I Didn't Know My Own Strength
TTITLE7=BR5-49 - Lifetime To Prove
TTITLE8=Charley Pride - Kiss An Angel Good Mornin'
TTITLE9=John Anderson - Money In The Bank
TTITLE10=Lynn Anderson - Rose Garden
TTITLE11=Chet Atkins and His Galloping Guitar - Country Gentleman
EXTD=
EXTT0=
EXTT1=
EXTT2=
EXTT3=
EXTT4=
EXTT5=
EXTT6=
EXTT7=
EXTT8=
EXTT9=
EXTT10=
EXTT11=
PLAYORDER=
